<svg id="Warstwa_1" data-name="Warstwa 1" xmlns="http://www.w3.org/2000/svg" viewBox="0 0 437.83 253.82"><defs><style>.cls-1{fill:#232323;}</style></defs><title>about-icon-1</title><path class="cls-1" d="M413.47,571.12c2.31-7.38,4.63-14.76,6.81-22.18a14.69,14.69,0,0,1,9.25-10.08c11.36-4.48,22.68-9.06,34-13.58.87-.35,1.78-.57,3.11-1l14.81,43.84.62-.09c.26-3.83.56-7.65.77-11.48.3-5.56.48-11.14.81-16.7a9.62,9.62,0,0,0-1.17-5.46c-1.53-2.79-2.87-5.68-4.67-9.27,10,5.17,19.14,5.3,28.83-.3a45,45,0,0,1-2.39,4.89c-3,4.52-3.72,9.39-3.3,14.72.62,7.8.81,15.63,1.84,23.62,2.54-7.23,5.15-14.44,7.61-21.7s4.69-14.42,7.18-22.12c13.49,4.28,26.13,10.07,39.5,15.57-1.17.75-9.92,4.65-13.5,6.27-8.33,3.76-14.21,9.71-16.88,18.69-2.54,8.57-3.13,16.65-3.74,25.92h-8.87c-28.28,0-56.56-.19-84.84.12-8.1.09-13.74-2.73-17-10.32A61.79,61.79,0,0,1,413.47,571.12Z" transform="translate(-412.27 -370.58)"/><path class="cls-1" d="M630.49,624.4H554.71c-1.8,0-3.61,0-5.41-.15-11.26-1-19.8-8.66-21.56-17.16-.14-.69.75-26.85,1-28.57,2.26-14.91,9.68-25.76,23.15-31.63,11.14-4.85,23-8,34.61-11.81.26-.09.66.24,1,.39.68,2.74-1.49,3.88-3.05,5.33-10,9.33-12.78,20.61-9.19,34.18,6.37-5,11.44-11.33,20.18-12.32,2,3.08,3.67,6.25,5.81,9.1,6.86,9.11,13.76,18.19,20.89,27.09,2.19,2.73,4.69,5.46,8.71,6.71h-.15c4-1.25,6.52-4,8.71-6.71,7.13-8.9,14-18,20.89-27.09,2.14-2.85,3.86-6,5.81-9.1,8.74,1,13.81,7.35,20.18,12.32,3.59-13.57.85-24.85-9.19-34.18-1.56-1.45-3.73-2.59-3.05-5.33.36-.14.75-.47,1-.39,11.57,3.85,23.47,7,34.61,11.81,13.47,5.87,21.77,16.62,24,31.53a79.35,79.35,0,0,1,1.07,12,158,158,0,0,1-.94,16.63c-1.77,8.5-10.3,16.15-21.56,17.16-1.79.16-3.6.15-5.41.15H630.49Z" transform="translate(-412.27 -370.58)"/><path class="cls-1" d="M697.95,502.87c-5.05,5.7-11.31,8.87-18.07,10.75-7.49,2.08-15.2,3.36-22.82,5-1.93.41-3.86.77-6.48,1.28,1.36,4.07,2.32,7.89,3.89,11.44,2.43,5.48,1.87,10.83.36,16.35-3.65,13.35-11.46,23.53-23.23,31.17-14.17-9.16-22.53-21.87-24.61-38.57a14.6,14.6,0,0,1,.75-5.83c1.39-4.58,3-9.08,4.67-13.85-2-1.62-4.37-1.7-6.68-2-10.72-1.49-21.32-3.45-31.08-8.5a28,28,0,0,1-9.52-7.37c1.14-2.06,2.09-4,3.27-5.83a18.19,18.19,0,0,0,2.14-16.58c-1.51-4.55-2.64-9.23-4.27-13.73A71.42,71.42,0,0,1,588.93,386c35.37-28,80.7-15.23,101.27,17.67,12.69,20.29,14.55,41.93,6.31,64.42-.07.19-.12.38-.19.57C689.82,485.81,689.87,486.84,697.95,502.87Z" transform="translate(-412.27 -370.58)"/><path class="cls-1" d="M459.29,486.34c-3.79.26-5.87-2.28-6.79-5.58a60.18,60.18,0,0,1-2-11.56c-.31-4.19,1-5.42,5.24-6.25.53-.1,1.07-.18,1.91-.32,0-3.19,0-6.4,0-9.61a41.24,41.24,0,0,1,1.65-13.25,34.16,34.16,0,0,1,28.41-23c8.12-.8,15.73.34,22.66,4.61,9.18,5.66,14.82,13.82,16,24.67.4,3.62.19,7.3.24,11,0,1.75,0,3.51,0,5.53l2.64.57c3.45.75,4.45,1.74,4.6,5.16a30.39,30.39,0,0,1-2.28,13.14c-1.21,2.93-3.13,5.12-6.64,4.87-2.06,4.28-3.77,8.57-6.08,12.51-5.43,9.25-13.07,15.84-23.65,18.68a11.71,11.71,0,0,1-6.4-.06c-10.39-2.88-18-9.32-23.34-18.46C463.19,495.07,461.5,490.9,459.29,486.34Z" transform="translate(-412.27 -370.58)"/><path class="cls-1" d="M848.92,571.12c-2.31-7.38-4.63-14.76-6.81-22.18a14.69,14.69,0,0,0-9.25-10.08c-11.36-4.48-22.68-9.06-34-13.58-.87-.35-1.78-.57-3.11-1l-14.81,43.84-.62-.09c-.26-3.83-.56-7.65-.77-11.48-.3-5.56-.48-11.14-.81-16.7a9.62,9.62,0,0,1,1.17-5.46c1.53-2.79,2.87-5.68,4.67-9.27-10,5.17-19.14,5.3-28.83-.3a45,45,0,0,0,2.39,4.89c3,4.52,3.72,9.39,3.3,14.72-.62,7.8-.81,15.63-1.84,23.62-2.54-7.23-5.15-14.44-7.61-21.7s-4.69-14.42-7.18-22.12c-13.49,4.28-26.13,10.07-39.5,15.57,1.17.75,9.92,4.65,13.5,6.27,8.33,3.76,14.21,9.71,16.88,18.69,2.54,8.57,3.13,16.65,3.74,25.92h8.87c28.28,0,56.56-.19,84.84.12,8.1.09,13.74-2.73,17-10.32A61.79,61.79,0,0,0,848.92,571.12Z" transform="translate(-412.27 -370.58)"/><path class="cls-1" d="M803.09,486.34c3.79.26,5.87-2.28,6.79-5.58a60.18,60.18,0,0,0,2-11.56c.31-4.19-1-5.42-5.24-6.25-.53-.1-1.07-.18-1.91-.32,0-3.19,0-6.4,0-9.61a41.24,41.24,0,0,0-1.65-13.25,34.16,34.16,0,0,0-28.41-23c-8.12-.8-15.73.34-22.66,4.61-9.18,5.66-14.82,13.82-16,24.67-.4,3.62-.19,7.3-.24,11,0,1.75,0,3.51,0,5.53l-2.64.57c-3.45.75-4.45,1.74-4.6,5.16a30.39,30.39,0,0,0,2.28,13.14c1.21,2.93,3.13,5.12,6.64,4.87,2.06,4.28,3.77,8.57,6.08,12.51,5.43,9.25,13.07,15.84,23.65,18.68a11.71,11.71,0,0,0,6.4-.06c10.39-2.88,18-9.32,23.34-18.46C799.19,495.07,800.88,490.9,803.09,486.34Z" transform="translate(-412.27 -370.58)"/></svg>