<svg id="Warstwa_2" data-name="Warstwa 2" xmlns="http://www.w3.org/2000/svg" viewBox="0 0 430 421.23"><defs><style>.cls-1{fill:#232323;}</style></defs><title>house-icon-1</title><path class="cls-1" d="M1031.49,351c-1.37-1.56-.93-3.2-1-4.71-.07-4.42,0-8.85-.06-13.27-.16-6.44-3.31-10-9.69-10.1q-16.47-.34-33,0c-6.07.13-9.27,3.75-9.56,9.87-.08,1.71-.05,3.42-.06,5.14,0,14.84-.16,29.68-.06,44.52,0,7.25-2.53,12.72-8.53,17.14-13.1,9.64-25.87,19.73-38.73,29.68a57.86,57.86,0,0,0-6.42,5.64c-8.45,8.82-6.92,22.18,3.29,28.88a24.16,24.16,0,0,0,21.7,2.86c1.54-.5,3-1.78,5-.84.87,1.83.57,3.85.57,5.81q0,61,0,122c0,1.28-.05,2.57,0,3.85,0,2.51-1.31,3.6-3.74,3.59s-4.57.09-6.85.08c-2.66,0-3.87,1.19-3.83,3.92.08,5.14,0,10.27,0,15.41,0,5.93.17,6.08,5.93,6.08q90.54,0,181.07,0c1.5,0,3.14.45,4.49-.74.44-1.62-.64-2.74-1.25-4a97.45,97.45,0,0,1-6.86-16.13c-1-3.55-3-4.71-6.53-4.6-5.56.17-11.13.05-16.69,0-6.74,0-6.75,0-6.8-6.57,0-3.42,0-6.85,0-10.27,0-27.25.31-54.51-.24-81.76-.33-16.38-9-28.16-24-34.41-15.33-6.36-29.46-3.21-41.61,7.93-9.56,8.78-12.9,20.24-12.91,32.86q0,43,0,86c0,5.85-.27,6.12-5.92,6.14s-11.42,0-17.12,0c-7.94,0-7.92-.06-7.92-8,0-48.09.08-96.17-.09-144.26,0-4.82,1.56-7.82,5.34-10.69q47-35.72,93.85-71.76c10.42-8,20.79-16,31.27-23.94,5-3.77,8.2-3.69,13.21-.07,2.54,1.84,5,3.78,7.5,5.69q59,45.15,117.92,90.31a10.22,10.22,0,0,0,5,2.31,122.29,122.29,0,0,1,54.23,20.79c2.37,1.62,4,1.3,5.95-.62,6.06-6,6.77-16.92,1.37-24a38.76,38.76,0,0,0-7.39-7.09L1160.18,313c-7-5.39-14-10.84-21-16.17-11.94-9-23.83-9-35.79,0l-1.7,1.3q-32.79,25.13-65.58,50.24C1034.73,349.42,1033.56,350.77,1031.49,351Z" transform="translate(-919 -290.08)"/><rect class="cls-1" x="164.58" y="106.21" width="32.4" height="63.36"/><rect class="cls-1" x="217.3" y="106.21" width="32.4" height="63.36"/><path class="cls-1" d="M1284.43,662.89c-3.7,1.22-6.92,2.33-10.17,3.36A108.7,108.7,0,0,1,1143.19,609C1120.55,560.6,1137.07,502.68,1182,473c66.64-44,157.25-1.74,166.25,77.61,3.75,33.11-6.15,61.95-28.33,86.67-3.93,4.38-3.92,4.29-.78,9.31,7.25,11.62,14.48,23.24,21.61,34.94,4,6.57,4.69,13.51.76,20.31-3.73,6.46-9.68,9.59-17.11,9.42-6.82-.15-11.83-3.78-15.63-9.17A186.66,186.66,0,0,1,1297.47,684C1293.58,676.83,1289,670.12,1284.43,662.89ZM1156.67,564c0,45.77,38.2,83.78,84.24,83.9a84.52,84.52,0,0,0,84.52-84.44c0-45.63-36.57-84.53-84.38-84.25C1193.94,479.44,1156.63,516.68,1156.67,564Z" transform="translate(-919 -290.08)"/></svg>